Coordinates
version=1
nRows=7
nColumns=63
inDegrees=yes

Units are S.I. units (second, meters, Newtons, ...)
If the header above contains a line with 'inDegrees', this indicates whether rotational values are in degrees (yes) or radians (no).

endheader
time	pelvis_tilt	pelvis_list	pelvis_rotation	pelvis_tx	pelvis_ty	pelvis_tz	hip_flexion_r	hip_adduction_r	hip_rotation_r	knee_angle_r	knee_angle_r_beta	ankle_angle_r	subtalar_angle_r	mtp_angle_r	hip_flexion_l	hip_adduction_l	hip_rotation_l	knee_angle_l	knee_angle_l_beta	ankle_angle_l	subtalar_angle_l	mtp_angle_l	L5_S1_Flex_Ext	L5_S1_Lat_Bending	L5_S1_axial_rotation	L4_L5_Flex_Ext	L4_L5_Lat_Bending	L4_L5_axial_rotation	L3_L4_Flex_Ext	L3_L4_Lat_Bending	L3_L4_axial_rotation	L2_L3_Flex_Ext	L2_L3_Lat_Bending	L2_L3_axial_rotation	L1_L2_Flex_Ext	L1_L2_Lat_Bending	L1_L2_axial_rotation	L1_T12_Flex_Ext	L1_T12_Lat_Bending	L1_T12_axial_rotation	Abs_r3	Abs_r2	Abs_r1	Abs_t1	Abs_t2	neck_flexion	neck_bending	neck_rotation	arm_flex_r	arm_add_r	arm_rot_r	elbow_flex_r	pro_sup_r	wrist_flex_r	wrist_dev_r	arm_flex_l	arm_add_l	arm_rot_l	elbow_flex_l	pro_sup_l	wrist_flex_l	wrist_dev_l
      1.58139535	      0.63637692	     -1.16507092	     92.96382510	      0.31416646	      0.81226765	      0.56731261	     -3.22898131	      0.86579001	     12.67069385	      0.49824064	      0.00869594	     25.76665166	    -12.30331080	      0.00000000	     -2.12159872	     -1.33744284	     20.23199146	      0.83541270	      0.01458070	     24.87866141	    -15.37902620	      0.00000000	     -0.10927406	      0.17874849	      1.10643902	     -0.20293285	      0.23773549	      1.17559146	     -0.17952635	      0.43460908	      1.17559146	     -0.12488932	      0.43460908	      0.96813415	     -0.10147189	      0.36450392	      0.89898171	     -0.06243920	      0.27688141	      0.82982927	     -0.78053365	      2.02203868	      6.15368191	      0.00000000	      0.00000000	     21.69877120	     -1.94376741	     -6.74563239	      3.38784934	    -10.04142270	     46.32977138	     45.99966617	     78.62118647	      5.41193352	      6.97476476	     12.33851567	     -7.97464507	     58.21959481	     45.86270933	     67.65812906	     10.90995116	      3.79240221
      1.60465116	      0.62000673	     -1.15424036	     93.07611960	      0.31388395	      0.81238414	      0.56728197	     -3.28632564	      0.85123468	     12.49909273	      0.50638488	      0.00883808	     25.65947869	    -12.34948482	      0.00000000	     -2.14367868	     -1.31415786	     20.22827326	      0.74294104	      0.01296677	     24.98627301	    -15.37122423	      0.00000000	     -0.10862674	      0.18504793	      1.14096430	     -0.20173071	      0.24611375	      1.21227456	     -0.17846286	      0.44992555	      1.21227456	     -0.12414950	      0.44992555	      0.99834376	     -0.10087079	      0.37734975	      0.92703349	     -0.06206932	      0.28663925	      0.85572322	     -0.77590991	      2.09329924	      6.34570112	      0.00000000	      0.00000000	     21.71210531	     -2.04952472	     -6.69682931	      3.44064685	    -10.03662490	     46.38831429	     45.92322194	     78.58749610	      5.40228831	      6.93734224	     12.03617785	     -8.14959996	     58.26455427	     45.71061247	     67.61249664	     11.11833207	      3.74448016
      1.62790698	      0.67940929	     -1.15798057	     93.51108692	      0.31272696	      0.81267728	      0.56747887	     -3.35130144	      0.89543012	     12.06424847	      0.51988061	      0.00907363	     25.44605393	    -12.41182003	      0.00000000	     -2.06712927	     -1.35968474	     20.24098416	      0.68016017	      0.01187103	     25.22761999	    -14.92575366	      0.00000000	     -0.11016644	      0.20781532	      1.13718914	     -0.20459010	      0.27639437	      1.20826347	     -0.18099245	      0.50528216	      1.20826347	     -0.12590923	      0.50528216	      0.99504050	     -0.10230056	      0.42377700	      0.92396618	     -0.06294910	      0.32190593	      0.85289186	     -0.78690788	      2.35084843	      6.32470486	      0.00000000	      0.00000000	     21.63413344	     -2.82506767	     -6.70664600	      3.72540530	    -10.21210128	     47.11694276	     45.68496575	     78.00422290	      5.20697166	      6.24016509	     11.95083897	     -8.13488544	     58.75209901	     44.79713765	     67.49287334	     12.88907996	      2.56943080
      1.65116279	      0.65284126	     -1.19317864	     93.79355276	      0.31192107	      0.81288168	      0.56771567	     -3.36340392	      0.86185151	     11.76311073	      0.51858094	      0.00905094	     25.25107893	    -12.56099478	      0.00000000	     -1.97855147	     -1.30633772	     20.35519967	      0.62682070	      0.01094008	     25.40983675	    -14.84743066	      0.00000000	     -0.11403660	      0.21131567	      1.22054667	     -0.21177737	      0.28104984	      1.29683084	     -0.18735073	      0.51379292	      1.29683084	     -0.13033243	      0.51379292	      1.06797834	     -0.10589439	      0.43091491	      0.99169417	     -0.06516051	      0.32732797	      0.91541000	     -0.81455204	      2.39044510	      6.78831441	      0.00000000	      0.00000000	     21.78789858	     -2.93491579	     -6.72931140	      3.89646639	    -10.25755061	     47.21647797	     45.53775213	     77.96163135	      5.16993650	      6.24750034	     11.63470130	     -8.29471265	     58.99891227	     44.67192808	     67.57168657	     12.94859752	      2.50617753
      1.67441860	      0.65409535	     -1.19645377	     94.76629229	      0.31003744	      0.81323093	      0.56895625	     -3.39423992	      0.87717258	     10.96404578	      0.49995070	      0.00872579	     24.92754150	    -12.93400183	      0.00000000	     -1.75791545	     -1.29103804	     20.65037188	      0.65475312	      0.01142760	     25.68002105	    -13.97962229	      0.00000000	     -0.13401723	      0.21194967	      1.33930017	     -0.24888340	      0.28189306	      1.42300643	     -0.22017691	      0.51533443	      1.42300643	     -0.15316830	      0.51533443	      1.17188765	     -0.12444840	      0.43220777	      1.08818139	     -0.07657745	      0.32831004	      1.00447513	     -0.95727169	      2.39761707	      7.44878578	      0.00000000	      0.00000000	     21.99791039	     -4.16575773	     -8.71238372	      4.18213464	    -10.63491224	     47.97610930	     45.44867764	     76.47644278	      4.17192957	      5.24822170	     12.64064753	     -8.29052162	     62.25845266	     43.64131522	     68.42656266	     13.20559584	      0.01754333
      1.69767442	      0.61716685	     -1.23745121	     95.21765792	      0.30900579	      0.81337012	      0.56965427	     -3.35341739	      0.82393163	     10.64560248	      0.48434268	      0.00845337	     24.88017940	    -13.12130105	      0.00000000	     -1.62461156	     -1.23232419	     20.92906761	      0.64940018	      0.01133417	     25.77518639	    -13.79770162	      0.00000000	     -0.13857841	      0.21313270	      1.46711276	     -0.25735397	      0.28346650	      1.55880730	     -0.22767047	      0.51821085	      1.55880730	     -0.15838127	      0.51821085	      1.28372366	     -0.12868391	      0.43462021	      1.19202911	     -0.07918371	      0.33014256	      1.10033457	     -0.98985174	      2.41099976	      8.15964101	      0.00000000	      0.00000000	     22.11842224	     -4.27424747	     -8.75459609	      4.41666641	    -10.76805614	     48.11921789	     45.26979596	     76.46514582	      4.18564536	      5.31048561	     12.40786295	     -8.37145493	     62.50062376	     43.61366303	     68.47725959	     13.22492747	      0.01971285
      1.72093023	      0.50234029	     -1.36646669	     96.41558991	      0.30712311	      0.81348222	      0.57143767	     -3.20153845	      0.73457232	      9.33261164	      0.46828011	      0.00817303	     24.75933141	    -13.09195916	      0.00000000	     -1.22331265	     -1.09888464	     21.71016052	      0.74110048	      0.01293464	     25.90700526	    -13.05368626	      0.00000000	     -0.14376158	      0.18679395	      1.59633699	     -0.26697963	      0.24843596	      1.69610805	     -0.23618590	      0.45417082	      1.69610805	     -0.16430511	      0.45417082	      1.39679487	     -0.13349700	      0.38091023	      1.29702381	     -0.08214537	      0.28934383	      1.19725274	     -1.02687458	      2.11305055	      8.87834745	      0.00000000	      0.00000000	     22.23137657	     -5.58279377	    -11.38220261	      4.99585453	    -11.25452405	     49.77357464	     45.08737433	     74.23534123	      3.16433214	      4.17642374	     14.17570097	     -8.41635919	     67.46234553	     42.87109219	     68.53317620	     12.92566712	     -1.74151179
